<svg width="124" height="32" viewBox="0 0 1611 256" fill="none" xmlns="http://www.w3.org/2000/svg">
<path fill-rule="evenodd" clip-rule="evenodd" d="M1342.57 184.331C1346.12 203.746 1364.62 221.42 1401.11 221.42C1438.74 221.42 1459.02 200.137 1459.02 180.037C1459.02 149.711 1427.2 145.222 1410.12 142.814C1407.59 142.463 1405.16 142.113 1402.98 141.741C1378.17 137.427 1366.35 133.552 1366.35 123.261C1366.35 116.232 1378.56 106.095 1400.65 106.095C1421.95 106.095 1432.69 116.482 1434.11 124.487L1456.19 116.965C1451.23 99.1067 1432.09 82.8193 1400.69 82.8193C1367.94 82.8193 1343.24 100.205 1343.24 123.261C1343.24 154.957 1376.78 160.801 1399.02 164.676L1399.08 164.688C1401.33 165.071 1403.76 165.417 1406.29 165.777L1406.29 165.777L1406.94 165.87C1429.4 169.045 1435.93 172.548 1435.93 180.102C1435.93 187.656 1423.78 198.144 1401.11 198.144C1379.21 198.144 1365.09 189.955 1365.09 177.278H1363.23L1342.57 184.331Z" fill="black"/>
<path d="M389.15 108.481C396.542 108.468 403.819 110.328 410.308 113.891C416.797 117.454 422.289 122.604 426.278 128.866L449.129 117.743C441.558 104.583 429.884 94.3026 415.917 88.4953C401.949 82.688 386.467 81.6778 371.871 85.6213C357.275 89.5648 344.379 98.2419 335.182 110.308C325.985 122.374 321 137.155 321 152.36C321 167.565 325.985 182.346 335.182 194.412C344.379 206.478 357.275 215.155 371.871 219.099C386.467 223.042 401.949 222.032 415.917 216.225C429.884 210.417 441.558 200.137 449.129 186.977L426.278 175.745C422.269 181.967 416.765 187.071 410.275 190.584C403.785 194.097 396.52 195.907 389.15 195.845C383.374 195.975 377.63 194.943 372.256 192.809C366.881 190.675 361.985 187.482 357.854 183.418C353.723 179.354 350.441 174.501 348.2 169.143C345.959 163.785 344.805 158.031 344.805 152.218C344.805 146.405 345.959 140.65 348.2 135.292C350.441 129.935 353.723 125.081 357.854 121.017C361.985 116.953 366.881 113.76 372.256 111.626C377.63 109.492 383.374 108.46 389.15 108.59V108.481Z" fill="black"/>
<path d="M812.257 61.9964C816.14 62.0084 819.872 60.4795 822.642 57.7414C825.412 55.0034 826.998 51.2768 827.055 47.3701C827.055 43.4561 825.51 39.7024 822.759 36.9348C820.008 34.1671 816.277 32.6123 812.387 32.6123C808.497 32.6123 804.766 34.1671 802.015 36.9348C799.264 39.7024 797.719 43.4561 797.719 47.3701C797.758 51.2369 799.303 54.934 802.021 57.6684C804.738 60.4027 808.413 61.9565 812.257 61.9964V61.9964Z" fill="black"/>
<path d="M539.098 82.8851C530.868 82.7164 522.72 84.5539 515.349 88.241C507.978 91.928 501.603 97.3549 496.769 104.058V32.3496H471.328V218.464H496.769V154.966C496.769 129.633 511.568 108.459 536.748 108.459C556.487 108.459 571.808 123.786 571.808 147.39V218.464H597.25V147.412C597.25 111.634 574.659 82.8851 539.098 82.8851Z" fill="black"/>
<path d="M1542.83 82.8848C1504.65 82.8848 1475.58 113.714 1475.58 152.119C1475.58 190.524 1506.74 221.354 1545.7 221.354C1570.62 221.354 1593.58 209.333 1605.68 189.211L1583.35 178.263C1574.51 189.758 1560.76 195.779 1545.7 195.779C1535.93 195.921 1526.39 192.79 1518.59 186.88C1510.78 180.97 1505.15 172.615 1502.59 163.133H1609.81C1613.97 111.897 1580.22 82.8848 1542.83 82.8848ZM1502.85 139.814C1504.97 130.793 1510.09 122.771 1517.36 117.071C1524.63 111.371 1533.61 108.333 1542.83 108.459C1563.09 108.459 1578.67 119.692 1583.09 139.814H1502.85Z" fill="black"/>
<path d="M1090.64 82.8851C1081.67 82.885 1072.81 84.7416 1064.59 88.3391C1056.37 91.9366 1048.97 97.198 1042.87 103.796V32.3496H1017.4V218.464H1042.87V200.444C1048.94 207.084 1056.33 212.375 1064.55 215.976C1072.78 219.577 1081.66 221.409 1090.64 221.354C1128.81 221.354 1158.41 190.525 1158.41 152.12C1158.41 113.714 1128.81 82.8851 1090.64 82.8851ZM1088.31 195.736C1064.15 195.736 1043.89 176.424 1043.89 152.12C1043.89 127.815 1064.15 108.481 1088.31 108.481C1112.46 108.481 1132.96 127.815 1132.96 152.12C1132.96 176.424 1112.44 195.736 1088.31 195.736Z" fill="black"/>
<path d="M824.965 86.0156H799.785V218.463H814.105H824.965V86.0156Z" fill="black"/>
<path d="M930.763 82.8847C922.533 82.716 914.384 84.5535 907.013 88.2406C899.642 91.9276 893.267 97.3545 888.433 104.058V86.0158H862.992V218.463H888.433V154.966C888.433 129.632 903.232 108.459 928.412 108.459C948.151 108.459 963.473 123.786 963.473 147.39V218.463H988.914V147.412C988.914 111.634 966.323 82.8847 930.763 82.8847Z" fill="black"/>
<path fill-rule="evenodd" clip-rule="evenodd" d="M712.507 88.3119C720.771 91.9094 728.209 97.1799 734.36 103.795V86.016H759.801V197.882H770.684V218.464H752.055V218.464H734.36V200.443C728.246 207.105 720.814 212.407 712.542 216.008C704.27 219.609 695.342 221.43 686.329 221.354C648.156 221.354 618.559 190.525 618.559 152.119C618.559 113.714 648.156 82.8849 686.329 82.8849C695.333 82.8671 704.244 84.7144 712.507 88.3119ZM644.261 152.141C644.261 176.446 664.501 195.758 688.658 195.758V195.736C712.815 195.736 733.316 176.446 733.316 152.141C733.316 127.837 712.815 108.503 688.658 108.503C664.501 108.503 644.261 127.837 644.261 152.141Z" fill="black"/>
<path fill-rule="evenodd" clip-rule="evenodd" d="M1270.47 88.3405C1278.7 91.9374 1286.12 97.1977 1292.25 103.795V86.0159H1317.69V197.881H1328.81V218.463H1317.69V218.463H1292.25V200.443C1286.16 207.088 1278.75 212.38 1270.5 215.981C1262.26 219.581 1253.36 221.411 1244.37 221.354C1206.13 221.354 1176.6 190.524 1176.6 152.119C1176.6 113.714 1206.2 82.8848 1244.37 82.8848C1253.35 82.8867 1262.23 84.7436 1270.47 88.3405ZM1202.15 152.141C1202.15 176.445 1222.41 195.758 1246.55 195.758V195.736C1270.79 195.736 1291.21 176.424 1291.21 152.119C1291.21 127.815 1270.49 108.481 1246.55 108.481C1222.61 108.481 1202.15 127.837 1202.15 152.141Z" fill="black"/>
<path fill-rule="evenodd" clip-rule="evenodd" d="M256 0H0V256H256V0ZM216 196H126V216H216V196Z" fill="black"/>
</svg>
